<mxfile host="app.diagrams.net" modified="2021-10-19T08:37:14.724Z" agent="5.0 (Windows NT 10.0; Win64; x64) AppleWebKit/537.36 (KHTML, like Gecko) Chrome/94.0.4606.81 Safari/537.36" etag="uhPfsCdgNUFByx_2ndY5" version="15.5.5" type="github">
  <diagram id="eaw8fCaroSGua-FuSO_3" name="Page-1">
    <mxGraphModel dx="1422" dy="794" grid="1" gridSize="10" guides="1" tooltips="1" connect="1" arrows="1" fold="1" page="1" pageScale="1" pageWidth="827" pageHeight="1169" math="0" shadow="0">
      <root>
        <mxCell id="0" />
        <mxCell id="1" parent="0" />
        <mxCell id="aM3QrwP1iDjlOQWImpp2-1" value="Object" style="html=1;" vertex="1" parent="1">
          <mxGeometry x="150" y="470" width="110" height="50" as="geometry" />
        </mxCell>
        <mxCell id="vWP_XnAj5sceBqO9dfI2-1" value="Object" style="html=1;" vertex="1" parent="1">
          <mxGeometry x="320" y="370" width="250" height="180" as="geometry" />
        </mxCell>
      </root>
    </mxGraphModel>
  </diagram>
</mxfile>
